<svg width="256" height="48" viewBox="0 0 256 48" fill="none" xmlns="http://www.w3.org/2000/svg">
<path d="M33.0625 23.5C32.7812 23.7812 32.7812 24.25 33.0625 24.5312L39.125 30.625C39.4375 30.9062 39.9062 30.9062 40.1875 30.625L40.9062 29.9062C41.1875 29.625 41.1875 29.1562 40.9062 28.8438L36.0938 24L40.9062 19.1875C41.1875 18.875 41.1875 18.4062 40.9062 18.125L40.1875 17.4062C39.9062 17.125 39.4375 17.125 39.125 17.4062L33.0625 23.5Z" fill="#BDBDBD"/>
<path fill-rule="evenodd" clip-rule="evenodd" d="M78.1334 25.264C78.4158 25.416 78.6337 25.656 78.7869 25.896C79.0855 26.392 79.0613 27 78.7708 27.536L78.206 28.496C77.9075 29.008 77.3508 29.328 76.778 29.328C76.4956 29.328 76.181 29.248 75.9228 29.088C75.713 28.952 75.471 28.904 75.2128 28.904C74.414 28.904 73.7444 29.568 73.7202 30.36C73.7202 31.28 72.9779 32 72.0501 32H70.9528C70.0169 32 69.2747 31.28 69.2747 30.36C69.2585 29.568 68.5889 28.904 67.7901 28.904C67.5239 28.904 67.2819 28.952 67.0802 29.088C66.822 29.248 66.4993 29.328 66.2249 29.328C65.644 29.328 65.0873 29.008 64.7888 28.496L64.2321 27.536C63.9336 27.016 63.9175 26.392 64.216 25.896C64.3451 25.656 64.5871 25.416 64.8614 25.264C65.0873 25.152 65.2326 24.968 65.3697 24.752C65.7731 24.064 65.5311 23.16 64.8453 22.752C64.0466 22.296 63.7884 21.28 64.2483 20.488L64.7888 19.544C65.2568 18.752 66.2572 18.472 67.064 18.936C67.7659 19.32 68.6776 19.064 69.0891 18.384C69.2182 18.16 69.2908 17.92 69.2747 17.68C69.2585 17.368 69.3473 17.072 69.5006 16.832C69.7991 16.336 70.3397 16.016 70.9286 16H72.0662C72.6633 16 73.2038 16.336 73.5024 16.832C73.6476 17.072 73.7444 17.368 73.7202 17.68C73.7041 17.92 73.7767 18.16 73.9058 18.384C74.3172 19.064 75.2289 19.32 75.9389 18.936C76.7377 18.472 77.7462 18.752 78.206 19.544L78.7466 20.488C79.2146 21.28 78.9564 22.296 78.1496 22.752C77.4638 23.16 77.2217 24.064 77.6332 24.752C77.7623 24.968 77.9075 25.152 78.1334 25.264ZM69.2182 24.008C69.2182 25.264 70.2428 26.264 71.5095 26.264C72.7762 26.264 73.7767 25.264 73.7767 24.008C73.7767 22.752 72.7762 21.744 71.5095 21.744C70.2428 21.744 69.2182 22.752 69.2182 24.008Z" fill="#1F78FF"/>
<path d="M103.408 16.8H105.6V28H103.408V23.36H99.248V28H97.04V16.8H99.248V21.248H103.408V16.8ZM113.665 20H115.729V28H113.665V27.056C113.046 27.8347 112.177 28.224 111.057 28.224C109.99 28.224 109.073 27.8187 108.305 27.008C107.547 26.1867 107.169 25.184 107.169 24C107.169 22.816 107.547 21.8187 108.305 21.008C109.073 20.1867 109.99 19.776 111.057 19.776C112.177 19.776 113.046 20.1653 113.665 20.944V20ZM109.857 25.632C110.273 26.048 110.801 26.256 111.441 26.256C112.081 26.256 112.609 26.048 113.025 25.632C113.451 25.2053 113.665 24.6613 113.665 24C113.665 23.3387 113.451 22.8 113.025 22.384C112.609 21.9573 112.081 21.744 111.441 21.744C110.801 21.744 110.273 21.9573 109.857 22.384C109.441 22.8 109.233 23.3387 109.233 24C109.233 24.6613 109.441 25.2053 109.857 25.632ZM121.408 28.224C120.203 28.224 119.195 27.8187 118.384 27.008C117.584 26.1973 117.184 25.1947 117.184 24C117.184 22.8053 117.584 21.8027 118.384 20.992C119.195 20.1813 120.203 19.776 121.408 19.776C122.187 19.776 122.896 19.9627 123.536 20.336C124.176 20.7093 124.662 21.2107 124.992 21.84L123.216 22.88C123.056 22.5493 122.811 22.288 122.48 22.096C122.16 21.904 121.798 21.808 121.392 21.808C120.774 21.808 120.262 22.016 119.856 22.432C119.451 22.8373 119.248 23.36 119.248 24C119.248 24.6293 119.451 25.152 119.856 25.568C120.262 25.9733 120.774 26.176 121.392 26.176C121.808 26.176 122.176 26.0853 122.496 25.904C122.827 25.712 123.072 25.4507 123.232 25.12L125.024 26.144C124.672 26.7733 124.176 27.28 123.536 27.664C122.896 28.0373 122.187 28.224 121.408 28.224ZM132.373 20V21.984H129.877V28H127.813V21.984H125.285V20H132.373ZM138.131 19.776C139.209 19.776 140.126 20.1867 140.883 21.008C141.651 21.8187 142.035 22.816 142.035 24C142.035 25.184 141.651 26.1867 140.883 27.008C140.126 27.8187 139.209 28.224 138.131 28.224C137.011 28.224 136.147 27.8347 135.539 27.056V31.2H133.475V20H135.539V20.944C136.147 20.1653 137.011 19.776 138.131 19.776ZM136.163 25.632C136.579 26.048 137.107 26.256 137.747 26.256C138.387 26.256 138.915 26.048 139.331 25.632C139.758 25.2053 139.971 24.6613 139.971 24C139.971 23.3387 139.758 22.8 139.331 22.384C138.915 21.9573 138.387 21.744 137.747 21.744C137.107 21.744 136.579 21.9573 136.163 22.384C135.747 22.8 135.539 23.3387 135.539 24C135.539 24.6613 135.747 25.2053 136.163 25.632ZM150.307 27.008C149.486 27.8187 148.483 28.224 147.299 28.224C146.115 28.224 145.112 27.8187 144.291 27.008C143.48 26.1867 143.075 25.184 143.075 24C143.075 22.816 143.48 21.8187 144.291 21.008C145.112 20.1867 146.115 19.776 147.299 19.776C148.483 19.776 149.486 20.1867 150.307 21.008C151.128 21.8187 151.539 22.816 151.539 24C151.539 25.184 151.128 26.1867 150.307 27.008ZM145.747 25.584C146.163 26 146.68 26.208 147.299 26.208C147.918 26.208 148.435 26 148.851 25.584C149.267 25.168 149.475 24.64 149.475 24C149.475 23.36 149.267 22.832 148.851 22.416C148.435 22 147.918 21.792 147.299 21.792C146.68 21.792 146.163 22 145.747 22.416C145.342 22.832 145.139 23.36 145.139 24C145.139 24.64 145.342 25.168 145.747 25.584ZM154.335 18.976V17.184H158.975V18.976H154.335ZM158.767 20H160.303V28H158.287V23.456L154.527 28H152.991V20H155.007V24.544L158.767 20ZM169.57 28H167.17L164.258 24.368V28H162.194V20H164.258V23.52L167.01 20H169.474L166.258 23.952L169.57 28ZM176.376 20H177.912V28H175.896V23.456L172.136 28H170.6V20H172.616V24.544L176.376 20Z" fill="#6F6F6F"/>
</svg>
