<svg width="192" height="40" viewBox="0 0 192 40" fill="none" xmlns="http://www.w3.org/2000/svg">
<circle cx="20" cy="20" r="20" fill="#1F78FF"/>
<path d="M7.9858 28.8068H10.0085V26H17.4233V28.7955H19.446V24.2784H18.1506V14.3636H10.7131L10.4062 19.2841C10.2188 22.4205 9.55398 23.6534 8.7642 24.2784H7.9858V28.8068ZM11.2188 24.2784C11.8381 23.2614 12.2869 21.6648 12.429 19.2841L12.6108 16.1307H16.1278V24.2784H11.2188ZM31.5611 20.1818C31.5611 16.4205 29.2656 14.2045 26.2145 14.2045C23.1577 14.2045 20.8679 16.4205 20.8679 20.1818C20.8679 23.9375 23.1577 26.1591 26.2145 26.1591C29.2656 26.1591 31.5611 23.9432 31.5611 20.1818ZM29.4418 20.1818C29.4418 22.8295 28.1122 24.267 26.2145 24.267C24.3224 24.267 22.9872 22.8295 22.9872 20.1818C22.9872 17.5341 24.3224 16.0966 26.2145 16.0966C28.1122 16.0966 29.4418 17.5341 29.4418 20.1818Z" fill="white"/>
<path d="M52.392 18.8068H54.4148V16H61.8295V18.7955H63.8523V14.2784H62.5568V4.36364H55.1193L54.8125 9.28409C54.625 12.4205 53.9602 13.6534 53.1705 14.2784H52.392V18.8068ZM55.625 14.2784C56.2443 13.2614 56.6932 11.6648 56.8352 9.28409L57.017 6.13068H60.5341V14.2784H55.625ZM69.2855 16.1705C71.8423 16.1705 73.4673 14.3693 73.4673 11.6705C73.4673 8.96591 71.8423 7.15909 69.2855 7.15909C66.7287 7.15909 65.1037 8.96591 65.1037 11.6705C65.1037 14.3693 66.7287 16.1705 69.2855 16.1705ZM69.2969 14.5227C67.8821 14.5227 67.1889 13.2614 67.1889 11.6648C67.1889 10.0682 67.8821 8.78977 69.2969 8.78977C70.6889 8.78977 71.3821 10.0682 71.3821 11.6648C71.3821 13.2614 70.6889 14.5227 69.2969 14.5227ZM79.0199 16.1705C81.2131 16.1705 82.6108 14.8693 82.7585 13.017H80.7926C80.6165 13.9545 79.9403 14.4943 79.0369 14.4943C77.7528 14.4943 76.9233 13.4205 76.9233 11.6364C76.9233 9.875 77.7699 8.81818 79.0369 8.81818C80.0256 8.81818 80.6335 9.45455 80.7926 10.2955H82.7585C82.6165 8.40341 81.1392 7.15909 79.0085 7.15909C76.4517 7.15909 74.8381 9.00568 74.8381 11.6705C74.8381 14.3125 76.4119 16.1705 79.0199 16.1705ZM83.8295 8.96023H86.6534V16H88.642V8.96023H91.4659V7.27273H83.8295V8.96023ZM96.5511 16.1705C99.108 16.1705 100.733 14.3693 100.733 11.6705C100.733 8.96591 99.108 7.15909 96.5511 7.15909C93.9943 7.15909 92.3693 8.96591 92.3693 11.6705C92.3693 14.3693 93.9943 16.1705 96.5511 16.1705ZM96.5625 14.5227C95.1477 14.5227 94.4545 13.2614 94.4545 11.6648C94.4545 10.0682 95.1477 8.78977 96.5625 8.78977C97.9545 8.78977 98.6477 10.0682 98.6477 11.6648C98.6477 13.2614 97.9545 14.5227 96.5625 14.5227ZM104.462 7.27273H102.479V16H104.462V12.4716H107.842V16H109.82V7.27273H107.842V10.7841H104.462V7.27273ZM113.582 7.27273H111.401L113.991 11.6364L111.332 16H113.514L115.344 12.858L117.19 16H119.355L116.679 11.6364L119.31 7.27273H117.134L115.344 10.4943L113.582 7.27273ZM124.379 16.1705C126.936 16.1705 128.561 14.3693 128.561 11.6705C128.561 8.96591 126.936 7.15909 124.379 7.15909C121.822 7.15909 120.197 8.96591 120.197 11.6705C120.197 14.3693 121.822 16.1705 124.379 16.1705ZM124.391 14.5227C122.976 14.5227 122.283 13.2614 122.283 11.6648C122.283 10.0682 122.976 8.78977 124.391 8.78977C125.783 8.78977 126.476 10.0682 126.476 11.6648C126.476 13.2614 125.783 14.5227 124.391 14.5227ZM132.29 7.27273H130.307V16H132.29V12.4716H135.67V16H137.648V7.27273H135.67V10.7841H132.29V7.27273ZM63.5455 29.1818C63.5455 25.4205 61.25 23.2045 58.1989 23.2045C55.142 23.2045 52.8523 25.4205 52.8523 29.1818C52.8523 32.9375 55.142 35.1591 58.1989 35.1591C61.25 35.1591 63.5455 32.9432 63.5455 29.1818ZM61.4261 29.1818C61.4261 31.8295 60.0966 33.267 58.1989 33.267C56.3068 33.267 54.9716 31.8295 54.9716 29.1818C54.9716 26.5341 56.3068 25.0966 58.1989 25.0966C60.0966 25.0966 61.4261 26.5341 61.4261 29.1818ZM64.9645 32.608C65.0156 34.2273 66.4986 35.1705 68.5156 35.1705C70.5838 35.1705 72.0781 34.1875 72.0781 32.5795C72.0781 31.4034 71.277 30.5966 70.2429 30.5341V30.4432C71.2429 30.1761 71.8793 29.5511 71.8793 28.608C71.8793 27.1364 70.6065 26.1591 68.5611 26.1591C66.652 26.1591 65.2145 27.1477 65.1861 28.6705H67.2145C67.2372 28.0852 67.8395 27.6761 68.6577 27.6761C69.4759 27.6761 69.9702 28.1136 69.9702 28.7614C69.9702 29.358 69.5156 29.8011 68.6634 29.8011H67.3281V31.2614H68.6634C69.5213 31.2614 70.0838 31.7443 70.0838 32.4489C70.0838 33.2443 69.3849 33.6307 68.5043 33.6307C67.6349 33.6307 67.044 33.2557 67.0043 32.608H64.9645ZM77.5043 35.1705C80.0611 35.1705 81.6861 33.3693 81.6861 30.6705C81.6861 27.9659 80.0611 26.1591 77.5043 26.1591C74.9474 26.1591 73.3224 27.9659 73.3224 30.6705C73.3224 33.3693 74.9474 35.1705 77.5043 35.1705ZM77.5156 33.5227C76.1009 33.5227 75.4077 32.2614 75.4077 30.6648C75.4077 29.0682 76.1009 27.7898 77.5156 27.7898C78.9077 27.7898 79.6009 29.0682 79.6009 30.6648C79.6009 32.2614 78.9077 33.5227 77.5156 33.5227ZM82.6591 37.5341H84.6818V35H90.392V37.5341H92.3807V33.3068H91.0284V26.2727H84.7216L84.4716 29.3295C84.3068 31.2841 84.0909 32.733 83.3523 33.3068H82.6591V37.5341ZM85.4659 33.3068C86.017 32.4943 86.2216 31.1761 86.3693 29.3295L86.5057 27.9318H89.0625V33.3068H85.4659ZM95.598 26.2727H93.4162L96.0071 30.6364L93.348 35H95.5298L97.3594 31.858L99.206 35H101.371L98.6946 30.6364L101.325 26.2727H99.1491L97.3594 29.4943L95.598 26.2727ZM106.395 35.1705C108.952 35.1705 110.577 33.3693 110.577 30.6705C110.577 27.9659 108.952 26.1591 106.395 26.1591C103.838 26.1591 102.213 27.9659 102.213 30.6705C102.213 33.3693 103.838 35.1705 106.395 35.1705ZM106.406 33.5227C104.991 33.5227 104.298 32.2614 104.298 30.6648C104.298 29.0682 104.991 27.7898 106.406 27.7898C107.798 27.7898 108.491 29.0682 108.491 30.6648C108.491 32.2614 107.798 33.5227 106.406 33.5227ZM111.55 37.5341H113.572V35H119.283V37.5341H121.271V33.3068H119.919V26.2727H113.612L113.362 29.3295C113.197 31.2841 112.982 32.733 112.243 33.3068H111.55V37.5341ZM114.357 33.3068C114.908 32.4943 115.112 31.1761 115.26 29.3295L115.396 27.9318H117.953V33.3068H114.357ZM122.239 35H124.665L127.159 31.4773H127.614V35H129.67V31.4773H130.125L132.608 35H135.034L131.83 30.4943L135.006 26.2727H132.631L130.148 29.7898H129.67V26.2727H127.614V29.7898H127.125L124.642 26.2727H122.267L125.46 30.4943L122.239 35ZM139.053 35.1761C140.422 35.1761 141.24 34.5341 141.615 33.8011H141.683V35H143.661V29.1591C143.661 26.8523 141.78 26.1591 140.115 26.1591C138.28 26.1591 136.871 26.9773 136.416 28.5682L138.337 28.8409C138.541 28.2443 139.121 27.733 140.126 27.733C141.081 27.733 141.604 28.2216 141.604 29.0795V29.1136C141.604 29.7045 140.984 29.733 139.445 29.8977C137.751 30.0795 136.132 30.5852 136.132 32.5511C136.132 34.267 137.388 35.1761 139.053 35.1761ZM139.587 33.6648C138.729 33.6648 138.115 33.2727 138.115 32.517C138.115 31.7273 138.803 31.3977 139.723 31.267C140.263 31.1932 141.342 31.0568 141.609 30.8409V31.8693C141.609 32.8409 140.825 33.6648 139.587 33.6648ZM149.592 35.1705C151.626 35.1705 153.024 34.1761 153.388 32.6591L151.467 32.4432C151.189 33.1818 150.507 33.5682 149.621 33.5682C148.291 33.5682 147.411 32.6932 147.393 31.1989H153.473V30.5682C153.473 27.5057 151.632 26.1591 149.484 26.1591C146.984 26.1591 145.354 27.9943 145.354 30.6875C145.354 33.4261 146.962 35.1705 149.592 35.1705ZM147.399 29.8125C147.462 28.6989 148.286 27.7614 149.513 27.7614C150.695 27.7614 151.49 28.625 151.501 29.8125H147.399ZM155.213 35H159.44C161.486 35 162.656 34.0739 162.656 32.6307C162.656 31.4091 161.707 30.5568 160.338 30.4375C161.503 30.2216 162.23 29.6023 162.23 28.6193C162.23 27.1477 160.94 26.2727 158.878 26.2727H155.213V35ZM157.139 33.3807V31.2159H159.44C160.196 31.2159 160.656 31.6534 160.656 32.375C160.656 33 160.196 33.3807 159.44 33.3807H157.139ZM157.139 29.8864V27.9205H158.878C159.736 27.9205 160.259 28.2841 160.259 28.8807C160.259 29.5057 159.753 29.8864 158.918 29.8864H157.139Z" fill="#6F6F6F"/>
</svg>
